<?xml version="1.0" standalone="no"?>
<!DOCTYPE svg PUBLIC "-//W3C//DTD SVG 20010904//EN"
 "http://www.w3.org/TR/2001/REC-SVG-20010904/DTD/svg10.dtd">
<svg version="1.0" xmlns="http://www.w3.org/2000/svg"
 width="192.000000pt" height="192.000000pt" viewBox="0 0 192.000000 192.000000"
 preserveAspectRatio="xMidYMid meet">

<g transform="translate(0.000000,192.000000) scale(0.100000,-0.100000)"
fill="#000000" stroke="none">
<path d="M1248 1640 c-171 -27 -257 -124 -246 -279 9 -128 98 -190 378 -262
128 -33 173 -86 135 -158 -30 -59 -166 -80 -255 -40 -49 22 -124 89 -146 131
l-14 27 -46 -47 c-42 -43 -45 -45 -40 -20 19 86 -48 196 -146 238 l-51 22 44
25 c62 35 86 60 105 109 34 89 -23 181 -137 220 -47 17 -86 19 -314 19 l-260
0 -3 -413 -2 -413 292 3 293 3 54 30 c30 16 65 44 79 61 l26 32 45 -38 c100
-83 212 -117 359 -107 210 14 312 101 312 264 0 94 -50 161 -155 209 -28 13
-107 39 -177 58 -142 39 -160 47 -182 78 -24 34 -20 74 12 108 34 39 132 60
198 41 51 -14 128 -80 155 -134 l21 -40 59 59 59 58 -28 29 c-98 104 -261 152
-424 127z m-557 -113 c34 -23 49 -58 49 -116 0 -90 -57 -131 -185 -131 l-75 0
0 136 0 136 93 -4 c65 -3 100 -9 118 -21z m31 -350 c60 -40 79 -163 35 -228
-35 -53 -77 -69 -184 -69 l-93 0 0 161 0 161 108 -4 c81 -3 113 -8 134 -21z"/>
</g>
</svg>
